<mxfile host="app.diagrams.net" agent="Mozilla/5.0 (Windows NT 10.0; Win64; x64) AppleWebKit/537.36 (KHTML, like Gecko) Chrome/134.0.0.0 Safari/537.36 Edg/134.0.0.0" version="26.2.2">
  <diagram name="PÃ¡gina-1" id="IgfvYxSUIOdAzZY1KqZh">
    <mxGraphModel dx="2132" dy="780" grid="1" gridSize="10" guides="1" tooltips="1" connect="1" arrows="1" fold="1" page="1" pageScale="1" pageWidth="827" pageHeight="1169" math="0" shadow="0">
      <root>
        <mxCell id="0" />
        <mxCell id="1" parent="0" />
        <mxCell id="hwh6EzQ2Ev00sZeAhjEP-6" style="edgeStyle=orthogonalEdgeStyle;rounded=0;orthogonalLoop=1;jettySize=auto;html=1;" parent="1" source="hwh6EzQ2Ev00sZeAhjEP-2" target="hwh6EzQ2Ev00sZeAhjEP-5" edge="1">
          <mxGeometry relative="1" as="geometry" />
        </mxCell>
        <mxCell id="hwh6EzQ2Ev00sZeAhjEP-2" value="" style="sketch=0;outlineConnect=0;fontColor=#232F3E;gradientColor=none;fillColor=#232F3D;strokeColor=none;dashed=0;verticalLabelPosition=bottom;verticalAlign=top;align=center;html=1;fontSize=12;fontStyle=0;aspect=fixed;pointerEvents=1;shape=mxgraph.aws4.users;" parent="1" vertex="1">
          <mxGeometry x="-510" y="168" width="78" height="78" as="geometry" />
        </mxCell>
        <mxCell id="X31YN8_nPQc1_KrbUR9K-1" value="AWS Cloud" style="points=[[0,0],[0.25,0],[0.5,0],[0.75,0],[1,0],[1,0.25],[1,0.5],[1,0.75],[1,1],[0.75,1],[0.5,1],[0.25,1],[0,1],[0,0.75],[0,0.5],[0,0.25]];outlineConnect=0;gradientColor=none;html=1;whiteSpace=wrap;fontSize=12;fontStyle=0;container=1;pointerEvents=0;collapsible=0;recursiveResize=0;shape=mxgraph.aws4.group;grIcon=mxgraph.aws4.group_aws_cloud_alt;strokeColor=#232F3E;fillColor=none;verticalAlign=top;align=left;spacingLeft=30;fontColor=#232F3E;dashed=0;" parent="1" vertex="1">
          <mxGeometry x="-340" y="50" width="1100" height="890" as="geometry" />
        </mxCell>
        <mxCell id="X31YN8_nPQc1_KrbUR9K-2" value="" style="points=[[0,0],[0.25,0],[0.5,0],[0.75,0],[1,0],[1,0.25],[1,0.5],[1,0.75],[1,1],[0.75,1],[0.5,1],[0.25,1],[0,1],[0,0.75],[0,0.5],[0,0.25]];outlineConnect=0;gradientColor=none;html=1;whiteSpace=wrap;fontSize=12;fontStyle=0;container=1;pointerEvents=0;collapsible=0;recursiveResize=0;shape=mxgraph.aws4.group;grIcon=mxgraph.aws4.group_region;strokeColor=#00A4A6;fillColor=none;verticalAlign=top;align=left;spacingLeft=30;fontColor=#147EBA;dashed=1;shadow=0;" parent="X31YN8_nPQc1_KrbUR9K-1" vertex="1">
          <mxGeometry x="10" y="30" width="1000" height="820" as="geometry" />
        </mxCell>
        <mxCell id="hwh6EzQ2Ev00sZeAhjEP-1" value="VPC" style="points=[[0,0],[0.25,0],[0.5,0],[0.75,0],[1,0],[1,0.25],[1,0.5],[1,0.75],[1,1],[0.75,1],[0.5,1],[0.25,1],[0,1],[0,0.75],[0,0.5],[0,0.25]];outlineConnect=0;gradientColor=none;html=1;whiteSpace=wrap;fontSize=12;fontStyle=0;container=1;pointerEvents=0;collapsible=0;recursiveResize=0;shape=mxgraph.aws4.group;grIcon=mxgraph.aws4.group_vpc2;strokeColor=#8C4FFF;fillColor=none;verticalAlign=top;align=left;spacingLeft=30;fontColor=#AAB7B8;dashed=0;" parent="X31YN8_nPQc1_KrbUR9K-2" vertex="1">
          <mxGeometry x="50" y="40" width="710" height="368" as="geometry" />
        </mxCell>
        <mxCell id="hwh6EzQ2Ev00sZeAhjEP-5" value="" style="sketch=0;outlineConnect=0;fontColor=#232F3E;gradientColor=none;fillColor=#8C4FFF;strokeColor=none;dashed=0;verticalLabelPosition=bottom;verticalAlign=top;align=center;html=1;fontSize=12;fontStyle=0;aspect=fixed;pointerEvents=1;shape=mxgraph.aws4.application_load_balancer;" parent="hwh6EzQ2Ev00sZeAhjEP-1" vertex="1">
          <mxGeometry x="40" y="48" width="78" height="78" as="geometry" />
        </mxCell>
        <mxCell id="hwh6EzQ2Ev00sZeAhjEP-7" value="Public subnet" style="points=[[0,0],[0.25,0],[0.5,0],[0.75,0],[1,0],[1,0.25],[1,0.5],[1,0.75],[1,1],[0.75,1],[0.5,1],[0.25,1],[0,1],[0,0.75],[0,0.5],[0,0.25]];outlineConnect=0;gradientColor=none;html=1;whiteSpace=wrap;fontSize=12;fontStyle=0;container=1;pointerEvents=0;collapsible=0;recursiveResize=0;shape=mxgraph.aws4.group;grIcon=mxgraph.aws4.group_security_group;grStroke=0;strokeColor=#7AA116;fillColor=#F2F6E8;verticalAlign=top;align=left;spacingLeft=30;fontColor=#248814;dashed=0;" parent="hwh6EzQ2Ev00sZeAhjEP-1" vertex="1">
          <mxGeometry x="30" y="140" width="240" height="170" as="geometry" />
        </mxCell>
        <mxCell id="hwh6EzQ2Ev00sZeAhjEP-44" style="edgeStyle=orthogonalEdgeStyle;rounded=0;orthogonalLoop=1;jettySize=auto;html=1;fontFamily=Helvetica;fontSize=12;fontColor=default;fontStyle=0;" parent="hwh6EzQ2Ev00sZeAhjEP-7" source="hwh6EzQ2Ev00sZeAhjEP-42" target="hwh6EzQ2Ev00sZeAhjEP-43" edge="1">
          <mxGeometry relative="1" as="geometry" />
        </mxCell>
        <mxCell id="hwh6EzQ2Ev00sZeAhjEP-42" value="" style="sketch=0;points=[[0,0,0],[0.25,0,0],[0.5,0,0],[0.75,0,0],[1,0,0],[0,1,0],[0.25,1,0],[0.5,1,0],[0.75,1,0],[1,1,0],[0,0.25,0],[0,0.5,0],[0,0.75,0],[1,0.25,0],[1,0.5,0],[1,0.75,0]];outlineConnect=0;fontColor=#232F3E;fillColor=#ED7100;strokeColor=#ffffff;dashed=0;verticalLabelPosition=bottom;verticalAlign=top;align=center;html=1;fontSize=12;fontStyle=0;aspect=fixed;shape=mxgraph.aws4.resourceIcon;resIcon=mxgraph.aws4.ecs;shadow=1;fontFamily=Helvetica;direction=south;" parent="hwh6EzQ2Ev00sZeAhjEP-7" vertex="1">
          <mxGeometry x="61" y="50" width="78" height="78" as="geometry" />
        </mxCell>
        <mxCell id="hwh6EzQ2Ev00sZeAhjEP-43" value="" style="sketch=0;outlineConnect=0;fontColor=#232F3E;gradientColor=none;fillColor=#ED7100;strokeColor=none;dashed=0;verticalLabelPosition=bottom;verticalAlign=top;align=center;html=1;fontSize=12;fontStyle=0;aspect=fixed;pointerEvents=1;shape=mxgraph.aws4.ecs_service;shadow=1;fontFamily=Helvetica;" parent="hwh6EzQ2Ev00sZeAhjEP-7" vertex="1">
          <mxGeometry x="171" y="80" width="39" height="48" as="geometry" />
        </mxCell>
        <mxCell id="hwh6EzQ2Ev00sZeAhjEP-9" style="edgeStyle=orthogonalEdgeStyle;rounded=0;orthogonalLoop=1;jettySize=auto;html=1;entryX=0;entryY=0.5;entryDx=0;entryDy=0;entryPerimeter=0;" parent="hwh6EzQ2Ev00sZeAhjEP-1" source="hwh6EzQ2Ev00sZeAhjEP-5" target="hwh6EzQ2Ev00sZeAhjEP-42" edge="1">
          <mxGeometry relative="1" as="geometry">
            <mxPoint x="190" y="180" as="targetPoint" />
          </mxGeometry>
        </mxCell>
        <mxCell id="hwh6EzQ2Ev00sZeAhjEP-21" style="edgeStyle=orthogonalEdgeStyle;rounded=0;orthogonalLoop=1;jettySize=auto;html=1;fontFamily=Helvetica;fontSize=12;fontColor=default;fontStyle=0;" parent="X31YN8_nPQc1_KrbUR9K-2" source="hwh6EzQ2Ev00sZeAhjEP-3" target="hwh6EzQ2Ev00sZeAhjEP-20" edge="1">
          <mxGeometry relative="1" as="geometry" />
        </mxCell>
        <mxCell id="hwh6EzQ2Ev00sZeAhjEP-3" value="" style="sketch=0;points=[[0,0,0],[0.25,0,0],[0.5,0,0],[0.75,0,0],[1,0,0],[0,1,0],[0.25,1,0],[0.5,1,0],[0.75,1,0],[1,1,0],[0,0.25,0],[0,0.5,0],[0,0.75,0],[1,0.25,0],[1,0.5,0],[1,0.75,0]];outlineConnect=0;fontColor=#232F3E;fillColor=#E7157B;strokeColor=#ffffff;dashed=0;verticalLabelPosition=bottom;verticalAlign=top;align=center;html=1;fontSize=12;fontStyle=0;aspect=fixed;shape=mxgraph.aws4.resourceIcon;resIcon=mxgraph.aws4.api_gateway;fontFamily=Times New Roman;" parent="X31YN8_nPQc1_KrbUR9K-2" vertex="1">
          <mxGeometry x="50" y="437" width="78" height="78" as="geometry" />
        </mxCell>
        <mxCell id="hwh6EzQ2Ev00sZeAhjEP-32" style="edgeStyle=orthogonalEdgeStyle;rounded=0;orthogonalLoop=1;jettySize=auto;html=1;fontFamily=Helvetica;fontSize=12;fontColor=default;fontStyle=0;" parent="X31YN8_nPQc1_KrbUR9K-2" source="hwh6EzQ2Ev00sZeAhjEP-20" target="hwh6EzQ2Ev00sZeAhjEP-25" edge="1">
          <mxGeometry relative="1" as="geometry" />
        </mxCell>
        <mxCell id="3QyT3hbsopWFDErdznoT-26" style="edgeStyle=orthogonalEdgeStyle;rounded=0;orthogonalLoop=1;jettySize=auto;html=1;fontFamily=Helvetica;fontSize=12;fontColor=default;fontStyle=0;" edge="1" parent="X31YN8_nPQc1_KrbUR9K-2" source="hwh6EzQ2Ev00sZeAhjEP-20" target="hwh6EzQ2Ev00sZeAhjEP-29">
          <mxGeometry relative="1" as="geometry">
            <Array as="points">
              <mxPoint x="305" y="579" />
            </Array>
          </mxGeometry>
        </mxCell>
        <mxCell id="hwh6EzQ2Ev00sZeAhjEP-20" value="" style="outlineConnect=0;dashed=0;verticalLabelPosition=bottom;verticalAlign=top;align=center;html=1;shape=mxgraph.aws3.lambda_function;fillColor=#F58534;gradientColor=none;shadow=1;strokeColor=#b85450;fontFamily=Helvetica;fontSize=12;fontColor=default;fontStyle=0;" parent="X31YN8_nPQc1_KrbUR9K-2" vertex="1">
          <mxGeometry x="270" y="440" width="69" height="72" as="geometry" />
        </mxCell>
        <mxCell id="hwh6EzQ2Ev00sZeAhjEP-23" value="" style="sketch=0;points=[[0,0,0],[0.25,0,0],[0.5,0,0],[0.75,0,0],[1,0,0],[0,1,0],[0.25,1,0],[0.5,1,0],[0.75,1,0],[1,1,0],[0,0.25,0],[0,0.5,0],[0,0.75,0],[1,0.25,0],[1,0.5,0],[1,0.75,0]];outlineConnect=0;fontColor=#232F3E;fillColor=#C925D1;strokeColor=#ffffff;dashed=0;verticalLabelPosition=bottom;verticalAlign=top;align=center;html=1;fontSize=12;fontStyle=0;aspect=fixed;shape=mxgraph.aws4.resourceIcon;resIcon=mxgraph.aws4.dynamodb;shadow=1;fontFamily=Helvetica;" parent="X31YN8_nPQc1_KrbUR9K-2" vertex="1">
          <mxGeometry x="872" y="400" width="78" height="78" as="geometry" />
        </mxCell>
        <mxCell id="hwh6EzQ2Ev00sZeAhjEP-26" style="edgeStyle=orthogonalEdgeStyle;rounded=0;orthogonalLoop=1;jettySize=auto;html=1;fontFamily=Helvetica;fontSize=12;fontColor=default;fontStyle=0;" parent="X31YN8_nPQc1_KrbUR9K-2" source="hwh6EzQ2Ev00sZeAhjEP-25" target="hwh6EzQ2Ev00sZeAhjEP-23" edge="1">
          <mxGeometry relative="1" as="geometry" />
        </mxCell>
        <mxCell id="hwh6EzQ2Ev00sZeAhjEP-25" value="" style="sketch=0;points=[[0,0,0],[0.25,0,0],[0.5,0,0],[0.75,0,0],[1,0,0],[0,1,0],[0.25,1,0],[0.5,1,0],[0.75,1,0],[1,1,0],[0,0.25,0],[0,0.5,0],[0,0.75,0],[1,0.25,0],[1,0.5,0],[1,0.75,0]];outlineConnect=0;fontColor=#232F3E;fillColor=#E7157B;strokeColor=#ffffff;dashed=0;verticalLabelPosition=bottom;verticalAlign=top;align=center;html=1;fontSize=12;fontStyle=0;aspect=fixed;shape=mxgraph.aws4.resourceIcon;resIcon=mxgraph.aws4.step_functions;shadow=1;fontFamily=Helvetica;" parent="X31YN8_nPQc1_KrbUR9K-2" vertex="1">
          <mxGeometry x="630" y="466" width="78" height="78" as="geometry" />
        </mxCell>
        <mxCell id="hwh6EzQ2Ev00sZeAhjEP-27" value="AWS Step Functions workflow" style="sketch=0;outlineConnect=0;gradientColor=none;html=1;whiteSpace=wrap;fontSize=12;fontStyle=0;shape=mxgraph.aws4.group;grIcon=mxgraph.aws4.group_aws_step_functions_workflow;strokeColor=#545B64;fillColor=none;verticalAlign=top;align=left;spacingLeft=30;fontColor=#545B64;dashed=0;shadow=1;fontFamily=Helvetica;" parent="X31YN8_nPQc1_KrbUR9K-2" vertex="1">
          <mxGeometry x="820" y="710" width="130" height="80" as="geometry" />
        </mxCell>
        <mxCell id="hwh6EzQ2Ev00sZeAhjEP-28" style="edgeStyle=orthogonalEdgeStyle;rounded=0;orthogonalLoop=1;jettySize=auto;html=1;entryX=0.5;entryY=1;entryDx=0;entryDy=0;entryPerimeter=0;fontFamily=Helvetica;fontSize=12;fontColor=default;fontStyle=0;" parent="X31YN8_nPQc1_KrbUR9K-2" source="hwh6EzQ2Ev00sZeAhjEP-27" target="hwh6EzQ2Ev00sZeAhjEP-25" edge="1">
          <mxGeometry relative="1" as="geometry">
            <Array as="points">
              <mxPoint x="770" y="750" />
              <mxPoint x="770" y="550" />
              <mxPoint x="669" y="550" />
            </Array>
          </mxGeometry>
        </mxCell>
        <mxCell id="hwh6EzQ2Ev00sZeAhjEP-29" value="" style="sketch=0;points=[[0,0,0],[0.25,0,0],[0.5,0,0],[0.75,0,0],[1,0,0],[0,1,0],[0.25,1,0],[0.5,1,0],[0.75,1,0],[1,1,0],[0,0.25,0],[0,0.5,0],[0,0.75,0],[1,0.25,0],[1,0.5,0],[1,0.75,0]];outlineConnect=0;fontColor=#232F3E;fillColor=#01A88D;strokeColor=#ffffff;dashed=0;verticalLabelPosition=bottom;verticalAlign=top;align=center;html=1;fontSize=12;fontStyle=0;aspect=fixed;shape=mxgraph.aws4.resourceIcon;resIcon=mxgraph.aws4.bedrock;shadow=1;fontFamily=Helvetica;" parent="X31YN8_nPQc1_KrbUR9K-2" vertex="1">
          <mxGeometry x="378" y="540" width="78" height="78" as="geometry" />
        </mxCell>
        <mxCell id="hwh6EzQ2Ev00sZeAhjEP-34" value="" style="sketch=0;points=[[0,0,0],[0.25,0,0],[0.5,0,0],[0.75,0,0],[1,0,0],[0,1,0],[0.25,1,0],[0.5,1,0],[0.75,1,0],[1,1,0],[0,0.25,0],[0,0.5,0],[0,0.75,0],[1,0.25,0],[1,0.5,0],[1,0.75,0]];outlineConnect=0;fontColor=#232F3E;fillColor=#E7157B;strokeColor=#ffffff;dashed=0;verticalLabelPosition=bottom;verticalAlign=top;align=center;html=1;fontSize=12;fontStyle=0;aspect=fixed;shape=mxgraph.aws4.resourceIcon;resIcon=mxgraph.aws4.sqs;shadow=1;fontFamily=Helvetica;" parent="X31YN8_nPQc1_KrbUR9K-2" vertex="1">
          <mxGeometry x="300" y="760" width="78" height="78" as="geometry" />
        </mxCell>
        <mxCell id="hwh6EzQ2Ev00sZeAhjEP-36" value="" style="sketch=0;points=[[0,0,0],[0.25,0,0],[0.5,0,0],[0.75,0,0],[1,0,0],[0,1,0],[0.25,1,0],[0.5,1,0],[0.75,1,0],[1,1,0],[0,0.25,0],[0,0.5,0],[0,0.75,0],[1,0.25,0],[1,0.5,0],[1,0.75,0]];points=[[0,0,0],[0.25,0,0],[0.5,0,0],[0.75,0,0],[1,0,0],[0,1,0],[0.25,1,0],[0.5,1,0],[0.75,1,0],[1,1,0],[0,0.25,0],[0,0.5,0],[0,0.75,0],[1,0.25,0],[1,0.5,0],[1,0.75,0]];outlineConnect=0;fontColor=#232F3E;fillColor=#E7157B;strokeColor=#ffffff;dashed=0;verticalLabelPosition=bottom;verticalAlign=top;align=center;html=1;fontSize=12;fontStyle=0;aspect=fixed;shape=mxgraph.aws4.resourceIcon;resIcon=mxgraph.aws4.cloudwatch_2;shadow=1;fontFamily=Helvetica;" parent="X31YN8_nPQc1_KrbUR9K-2" vertex="1">
          <mxGeometry x="872" y="90" width="78" height="78" as="geometry" />
        </mxCell>
        <mxCell id="hwh6EzQ2Ev00sZeAhjEP-37" value="" style="sketch=0;points=[[0,0,0],[0.25,0,0],[0.5,0,0],[0.75,0,0],[1,0,0],[0,1,0],[0.25,1,0],[0.5,1,0],[0.75,1,0],[1,1,0],[0,0.25,0],[0,0.5,0],[0,0.75,0],[1,0.25,0],[1,0.5,0],[1,0.75,0]];outlineConnect=0;fontColor=#232F3E;fillColor=#7AA116;strokeColor=#ffffff;dashed=0;verticalLabelPosition=bottom;verticalAlign=top;align=center;html=1;fontSize=12;fontStyle=0;aspect=fixed;shape=mxgraph.aws4.resourceIcon;resIcon=mxgraph.aws4.s3;shadow=1;fontFamily=Helvetica;" parent="X31YN8_nPQc1_KrbUR9K-2" vertex="1">
          <mxGeometry x="872" y="220" width="78" height="78" as="geometry" />
        </mxCell>
        <mxCell id="hwh6EzQ2Ev00sZeAhjEP-45" style="edgeStyle=orthogonalEdgeStyle;rounded=0;orthogonalLoop=1;jettySize=auto;html=1;fontFamily=Helvetica;fontSize=12;fontColor=default;fontStyle=0;" parent="X31YN8_nPQc1_KrbUR9K-2" source="hwh6EzQ2Ev00sZeAhjEP-43" target="hwh6EzQ2Ev00sZeAhjEP-3" edge="1">
          <mxGeometry relative="1" as="geometry">
            <Array as="points">
              <mxPoint x="281" y="380" />
              <mxPoint x="89" y="380" />
            </Array>
          </mxGeometry>
        </mxCell>
        <mxCell id="3QyT3hbsopWFDErdznoT-4" value="API GATEWAY" style="text;html=1;align=center;verticalAlign=middle;whiteSpace=wrap;rounded=0;fontFamily=Helvetica;fontSize=12;fontColor=default;fontStyle=1;" vertex="1" parent="X31YN8_nPQc1_KrbUR9K-2">
          <mxGeometry x="59" y="530" width="60" height="30" as="geometry" />
        </mxCell>
        <mxCell id="3QyT3hbsopWFDErdznoT-27" style="edgeStyle=orthogonalEdgeStyle;rounded=0;orthogonalLoop=1;jettySize=auto;html=1;entryX=1;entryY=0.5;entryDx=0;entryDy=0;entryPerimeter=0;fontFamily=Helvetica;fontSize=12;fontColor=default;fontStyle=0;" edge="1" parent="X31YN8_nPQc1_KrbUR9K-2" source="hwh6EzQ2Ev00sZeAhjEP-25" target="hwh6EzQ2Ev00sZeAhjEP-29">
          <mxGeometry relative="1" as="geometry" />
        </mxCell>
        <mxCell id="3QyT3hbsopWFDErdznoT-28" style="edgeStyle=orthogonalEdgeStyle;rounded=0;orthogonalLoop=1;jettySize=auto;html=1;entryX=1;entryY=0.25;entryDx=0;entryDy=0;entryPerimeter=0;fontFamily=Helvetica;fontSize=12;fontColor=default;fontStyle=0;" edge="1" parent="X31YN8_nPQc1_KrbUR9K-2" source="hwh6EzQ2Ev00sZeAhjEP-25" target="hwh6EzQ2Ev00sZeAhjEP-34">
          <mxGeometry relative="1" as="geometry">
            <Array as="points">
              <mxPoint x="660" y="780" />
            </Array>
          </mxGeometry>
        </mxCell>
        <mxCell id="3QyT3hbsopWFDErdznoT-1" value="UsuÃ¡rios" style="text;html=1;align=center;verticalAlign=middle;whiteSpace=wrap;rounded=0;fontFamily=Helvetica;fontSize=12;fontColor=default;fontStyle=0;" vertex="1" parent="1">
          <mxGeometry x="-501" y="270" width="60" height="30" as="geometry" />
        </mxCell>
      </root>
    </mxGraphModel>
  </diagram>
</mxfile>
